<?xml version="1.0" standalone="no"?>
<!DOCTYPE svg PUBLIC "-//W3C//DTD SVG 20010904//EN"
 "http://www.w3.org/TR/2001/REC-SVG-20010904/DTD/svg10.dtd">
<svg version="1.0" xmlns="http://www.w3.org/2000/svg"
 width="500.000000pt" height="500.000000pt" viewBox="0 0 500.000000 500.000000"
 preserveAspectRatio="xMidYMid meet">

<g transform="translate(0.000000,500.000000) scale(0.100000,-0.100000)"
fill="#ffffff" stroke="none">
<path d="M610 2810 c-25 -3 -63 -16 -86 -28 -55 -28 -71 -71 -66 -169 3 -42
58 -99 139 -142 95 -51 126 -81 125 -121 -1 -38 -23 -60 -60 -60 -34 0 -52 23
-52 69 l0 41 -81 0 -81 0 4 -55 c3 -34 13 -67 24 -83 71 -97 296 -97 365 0 20
28 24 45 24 110 l0 77 -41 38 c-22 21 -71 54 -109 73 -111 57 -134 89 -99 138
30 43 94 16 94 -41 0 -27 0 -27 75 -27 l75 0 0 34 c0 45 -33 100 -74 124 -36
22 -109 30 -176 22z"/>
<path d="M2454 2790 c-65 -29 -84 -61 -84 -141 0 -61 3 -72 30 -102 16 -19 55
-48 87 -65 32 -17 77 -44 101 -61 35 -26 42 -37 42 -65 0 -25 -7 -39 -22 -50
-47 -33 -88 -8 -95 56 l-5 43 -75 0 -75 1 5 -58 c7 -76 27 -104 93 -134 99
-44 242 -22 291 44 44 59 37 177 -13 227 -26 26 -86 64 -141 89 -44 20 -83 60
-83 86 0 33 37 63 68 55 32 -8 42 -21 42 -57 0 -28 0 -28 70 -28 l70 0 0 41
c0 90 -69 140 -193 138 -47 0 -86 -7 -113 -19z"/>
<path d="M4233 2791 c-23 -11 -52 -35 -67 -57 -26 -38 -26 -40 -26 -230 0
-182 1 -193 23 -225 33 -51 88 -73 177 -74 166 0 213 49 215 232 l1 103 -109
0 -109 0 6 -31 c3 -17 6 -35 6 -40 0 -5 14 -9 30 -9 l30 0 0 -61 c0 -70 -14
-88 -67 -89 -59 0 -63 13 -63 195 0 156 1 165 22 185 12 11 31 20 43 20 29 0
65 -40 65 -73 0 -27 1 -27 70 -27 l70 0 0 35 c0 106 -73 165 -204 165 -48 0
-85 -7 -113 -19z"/>
<path d="M1075 2778 c-5 -15 -14 -63 -50 -258 -14 -74 -29 -155 -34 -180 -5
-25 -11 -64 -15 -88 l-6 -43 77 3 78 3 12 80 c7 44 22 145 33 225 26 186 31
212 39 205 3 -4 13 -59 22 -123 26 -183 50 -345 55 -369 4 -21 10 -23 79 -23
41 0 75 3 75 8 0 7 -13 81 -66 367 -14 77 -28 155 -31 173 l-5 32 -129 0 c-95
0 -131 -3 -134 -12z"/>
<path d="M1577 2758 c-2 -18 -5 -145 -6 -282 -1 -138 -4 -253 -7 -258 -3 -4
29 -8 70 -8 l76 0 0 262 c0 144 2 259 5 257 2 -3 11 -41 19 -84 12 -67 45
-240 75 -395 l6 -35 75 0 74 0 18 100 c10 55 25 141 33 190 26 152 36 195 46
195 5 0 9 -101 9 -245 l0 -245 73 0 72 0 -6 277 c-4 153 -7 284 -8 291 -1 9
-32 12 -120 12 l-118 0 -6 -37 c-4 -21 -17 -108 -31 -193 -33 -214 -40 -228
-55 -115 -6 50 -16 104 -21 120 -5 17 -14 74 -21 128 l-12 97 -118 0 -117 0
-5 -32z"/>
<path d="M2922 2536 l3 -255 28 -29 c60 -62 196 -78 288 -34 79 39 83 52 87
330 l4 242 -76 0 -76 0 0 -227 c0 -126 -4 -233 -8 -239 -15 -23 -51 -35 -72
-24 -36 19 -40 44 -40 269 l0 221 -70 0 -71 0 3 -254z"/>
<path d="M3490 2505 l0 -285 70 0 70 0 1 228 0 227 19 -50 c10 -27 30 -88 44
-135 13 -47 37 -127 53 -177 l28 -93 103 0 102 0 0 285 0 285 -70 0 -70 0 -2
-217 -3 -218 -17 60 c-9 33 -28 101 -43 150 -15 50 -34 119 -44 155 l-17 65
-112 3 -112 3 0 -286z"/>
</g>
</svg>
